<svg xmlns="http://www.w3.org/2000/svg" width="36" height="36" viewBox="0 0 36 36" fill="none">
  <!-- Pixel O - ohyess.kr logo -->
  <!-- Row 1: Top -->
  <rect x="10" y="2"  width="5" height="5" rx="1" fill="#8b7ad8" opacity="0.45"/>
  <rect x="16" y="2"  width="5" height="5" rx="1" fill="#8b7ad8" opacity="0.7"/>
  <rect x="22" y="2"  width="5" height="5" rx="1" fill="#6cb4ee" opacity="0.5"/>
  <!-- Row 2 -->
  <rect x="4"  y="8"  width="5" height="5" rx="1" fill="#8b7ad8" opacity="0.8"/>
  <rect x="28" y="8"  width="5" height="5" rx="1" fill="#6cb4ee" opacity="0.85"/>
  <!-- Row 3: Center -->
  <rect x="4"  y="14" width="5" height="5" rx="1" fill="#8b7ad8"/>
  <rect x="28" y="14" width="5" height="5" rx="1" fill="#7c9ee8"/>
  <!-- Row 4 -->
  <rect x="4"  y="20" width="5" height="5" rx="1" fill="#9b8be0" opacity="0.75"/>
  <rect x="28" y="20" width="5" height="5" rx="1" fill="#6cb4ee" opacity="0.65"/>
  <!-- Row 5: Bottom -->
  <rect x="10" y="26" width="5" height="5" rx="1" fill="#9b8be0" opacity="0.5"/>
  <rect x="16" y="26" width="5" height="5" rx="1" fill="#7c9ee8" opacity="0.6"/>
  <rect x="22" y="26" width="5" height="5" rx="1" fill="#6cb4ee" opacity="0.4"/>
  <!-- Glitch pixels -->
  <rect x="34" y="5"  width="3" height="3" rx="0.5" fill="#6cb4ee" opacity="0.3"/>
  <rect x="-1" y="22" width="3" height="3" rx="0.5" fill="#8b7ad8" opacity="0.2"/>
  <rect x="30" y="29" width="2.5" height="2.5" rx="0.5" fill="#6cb4ee" opacity="0.2"/>
</svg>
