<svg xmlns="http://www.w3.org/2000/svg" width="32" height="32" viewBox="0 0 32 32" fill="none">
  <defs>
    <linearGradient id="bg" x1="0" y1="0" x2="32" y2="32">
      <stop offset="0%" stop-color="#8b7ad8"/>
      <stop offset="100%" stop-color="#6cb4ee"/>
    </linearGradient>
  </defs>
  <rect width="32" height="32" rx="7" fill="url(#bg)"/>
  <rect x="9"  y="2.5" width="4.5" height="4.5" rx="1" fill="white" opacity="0.5"/>
  <rect x="14.5" y="2.5" width="4.5" height="4.5" rx="1" fill="white" opacity="0.75"/>
  <rect x="20" y="2.5" width="4.5" height="4.5" rx="1" fill="white" opacity="0.55"/>
  <rect x="3.5" y="8" width="4.5" height="4.5" rx="1" fill="white" opacity="0.8"/>
  <rect x="25" y="8" width="4.5" height="4.5" rx="1" fill="white" opacity="0.9"/>
  <rect x="3.5" y="13.5" width="4.5" height="4.5" rx="1" fill="white" opacity="1"/>
  <rect x="25" y="13.5" width="4.5" height="4.5" rx="1" fill="white" opacity="0.85"/>
  <rect x="3.5" y="19" width="4.5" height="4.5" rx="1" fill="white" opacity="0.75"/>
  <rect x="25" y="19" width="4.5" height="4.5" rx="1" fill="white" opacity="0.65"/>
  <rect x="9"  y="24.5" width="4.5" height="4.5" rx="1" fill="white" opacity="0.45"/>
  <rect x="14.5" y="24.5" width="4.5" height="4.5" rx="1" fill="white" opacity="0.6"/>
  <rect x="20" y="24.5" width="4.5" height="4.5" rx="1" fill="white" opacity="0.4"/>
</svg>
